<svg width="24" height="24" viewBox="0 0 24 24" fill="none" xmlns="http://www.w3.org/2000/svg">
<path d="M12.6284 18.9743C14.1941 15.0085 19.8048 15.0087 21.3706 18.9743L21.4438 19.1696L21.4722 19.2673C21.5906 19.7602 21.3184 20.273 20.8296 20.444C20.341 20.6147 19.809 20.3835 19.5942 19.9245L19.5552 19.8298L19.4683 19.6081C18.5225 17.464 15.4764 17.4638 14.5308 19.6081L14.4438 19.8298C14.2614 20.3509 13.6906 20.6262 13.1694 20.444C12.6486 20.2615 12.3731 19.6906 12.5552 19.1696L12.6284 18.9743ZM11.9985 4.38641C15.438 1.70975 19.8057 3.15608 21.3618 6.58661C21.5898 7.08938 21.3663 7.68253 20.8638 7.91083C20.3609 8.13868 19.7687 7.91554 19.5405 7.41278C18.4255 4.95472 15.1903 3.96397 12.7036 6.42548C12.3139 6.81097 11.686 6.81111 11.2964 6.42548C8.92738 4.08004 5.89481 4.87183 4.64404 7.05341C3.4847 9.07636 3.66395 12.8885 9.04248 16.9304L9.57861 17.322L9.65967 17.3854C10.0411 17.7188 10.115 18.2943 9.81592 18.7165C9.51642 19.1388 8.94922 19.2583 8.5083 19.0085L8.42236 18.9538L7.84424 18.5319C2.03548 14.1588 1.03788 9.32379 2.90869 6.05927C4.65746 3.00842 8.74709 1.85866 11.9985 4.38641ZM16.9995 9.24969C18.6563 9.24969 19.9993 10.593 19.9995 12.2497C19.9995 13.9065 18.6564 15.2497 16.9995 15.2497C15.3428 15.2495 13.9995 13.9064 13.9995 12.2497C13.9997 10.5931 15.3429 9.24991 16.9995 9.24969ZM16.9995 11.2497C16.4475 11.2499 15.9997 11.6977 15.9995 12.2497C15.9995 12.8018 16.4474 13.2495 16.9995 13.2497C17.5518 13.2497 17.9995 12.802 17.9995 12.2497C17.9993 11.6976 17.5517 11.2497 16.9995 11.2497Z" fill="#0D0D0D"/>
</svg>
